<svg viewBox="164 0 44 44" width="300" height="300" fill="none" xmlns="http://www.w3.org/2000/svg">
<path d="M164.645 33.0283H207.355" stroke="#09e57b" stroke-width="1.40625" stroke-miterlimit="10" stroke-linecap="round" stroke-linejoin="round"/>
<path d="M166.022 33.0283L175.014 21.4678C175.399 20.9733 176.068 20.8004 176.644 21.0473L180.489 22.695L183.721 20.0015C184.241 19.5687 184.997 19.5766 185.507 20.0202L200.467 33.0283" stroke="#09e57b" stroke-width="1.40625" stroke-miterlimit="10" stroke-linecap="round" stroke-linejoin="round"/>
<path d="M177.13 21.2126L185.037 11.4807C185.552 10.8466 186.503 10.7976 187.08 11.3752L192.889 17.1839L194.503 16.3767C195.147 16.0548 195.931 16.2829 196.301 16.9002L205.978 33.0283" stroke="#09e57b" stroke-width="1.40625" stroke-miterlimit="10" stroke-linecap="round" stroke-linejoin="round"/>
<path d="M180.489 22.695L185.311 33.0283" stroke="#09e57b" stroke-width="1.40625" stroke-miterlimit="10" stroke-linecap="round" stroke-linejoin="round"/>
<path d="M191.685 21.3008L190.765 24.446" stroke="#09e57b" stroke-width="1.40625" stroke-miterlimit="10" stroke-linecap="round" stroke-linejoin="round"/>
<path d="M192.889 17.1839L192.476 18.5955" stroke="#09e57b" stroke-width="1.40625" stroke-miterlimit="10" stroke-linecap="round" stroke-linejoin="round"/>
<path d="M171.533 33.0283L174.978 26.8284" stroke="#09e57b" stroke-width="1.40625" stroke-miterlimit="10" stroke-linecap="round" stroke-linejoin="round"/>
</svg>
